<svg width="97" height="97" viewBox="0 0 97 97" fill="none" xmlns="http://www.w3.org/2000/svg">
<g id="61-BILA">
<g id="Ellipse 8">
<mask id="path-1-inside-1_186_271" fill="white">
<path d="M97 48.5C97 75.2858 75.2858 97 48.5 97C21.7142 97 0 75.2858 0 48.5C0 21.7142 21.7142 0 48.5 0C75.2858 0 97 21.7142 97 48.5ZM24.25 48.5C24.25 61.8929 35.1071 72.75 48.5 72.75C61.8929 72.75 72.75 61.8929 72.75 48.5C72.75 35.1071 61.8929 24.25 48.5 24.25C35.1071 24.25 24.25 35.1071 24.25 48.5Z"/>
</mask>
<path d="M97 48.5C97 75.2858 75.2858 97 48.5 97C21.7142 97 0 75.2858 0 48.5C0 21.7142 21.7142 0 48.5 0C75.2858 0 97 21.7142 97 48.5ZM24.25 48.5C24.25 61.8929 35.1071 72.75 48.5 72.75C61.8929 72.75 72.75 61.8929 72.75 48.5C72.75 35.1071 61.8929 24.25 48.5 24.25C35.1071 24.25 24.25 35.1071 24.25 48.5Z" stroke="white" stroke-width="2" mask="url(#path-1-inside-1_186_271)"/>
</g>
</g>
</svg>
