<svg width="183" height="55" viewBox="0 0 183 55" fill="none" xmlns="http://www.w3.org/2000/svg">
<g id="demagog-logo-sub-85961d49f1dec95cc6087a1a4376acf52f2daa10ca022bb95d42fba85b6a0ffd 1" clip-path="url(#clip0_176_28)">
<g id="Group">
<g id="Group_2">
<g id="Group_3">
<path id="Vector" d="M32.9156 17.1395C29.7717 11.991 24.1408 8.54297 17.6652 8.54297C7.76426 8.54297 -0.259766 16.6199 -0.259766 26.5861C-0.259766 36.5524 7.76426 44.6293 17.6652 44.6293C24.0938 44.6293 29.7247 41.2285 32.8687 36.0801L15.976 26.6806L32.9156 17.1395Z" fill="white"/>
</g>
</g>
<g id="Group_4">
<path id="Vector_2" d="M44.835 14.3535H52.7651C58.9122 14.3535 63.6046 19.1241 63.6046 25.784C63.6046 32.4439 58.9122 37.2145 52.7651 37.2145H44.835V14.3535ZM52.8121 33.9554C57.0822 33.9554 60.273 30.649 60.273 25.784C60.273 20.919 57.0822 17.6126 52.8121 17.6126H48.2604V33.9082H52.8121V33.9554Z" fill="white"/>
<path id="Vector_3" d="M81.811 32.4911C81.0133 34.6166 78.714 37.545 74.5378 37.545C69.8454 37.545 66.4199 34.097 66.4199 29.043C66.4199 23.9891 69.8454 20.541 74.5378 20.541C78.9017 20.541 82.3272 23.9891 82.3272 28.5235C82.3272 28.9958 82.2803 29.4209 82.2333 29.7043L82.1864 30.1766H69.7046C70.08 32.9634 71.957 34.7583 74.5847 34.7583C76.5086 34.7583 77.9632 33.6247 78.4794 32.4911H81.811ZM79.2302 27.7677C78.8548 25.1699 77.1186 23.375 74.5378 23.375C71.7693 23.375 70.1738 25.1699 69.6577 27.7677H79.2302Z" fill="white"/>
<path id="Vector_4" d="M85.7061 20.9195H88.6154L88.9438 22.5727H89.0846C89.4131 22.1948 89.7885 21.8642 90.2108 21.5808C90.9616 21.1084 91.9939 20.5889 93.3078 20.5889C94.9501 20.5889 96.0294 21.1557 96.7332 21.7225C97.1086 22.1003 97.4371 22.431 97.7186 22.8561H97.8594C98.1879 22.431 98.6102 22.0531 99.1263 21.7225C100.018 21.1557 101.285 20.5889 103.209 20.5889C106.587 20.5889 109.027 23.1867 109.027 26.9181V37.215H105.79V26.9181C105.79 24.7926 104.476 23.4701 102.552 23.4701C100.581 23.4701 98.9856 24.9343 98.9856 26.9181V37.215H95.7478V26.9181C95.7478 24.7926 94.4339 23.4701 92.51 23.4701C90.5392 23.4701 88.9438 24.9343 88.9438 26.9181V37.215H85.7061V20.9195Z" fill="white"/>
<path id="Vector_5" d="M123.338 35.4195H123.198C122.869 35.8446 122.494 36.2225 122.025 36.5059C121.227 37.0255 120.007 37.545 118.318 37.545C114.751 37.545 112.499 35.4668 112.499 32.4911C112.499 29.232 114.611 27.1065 119.162 27.1065H123.198V26.7758C123.198 24.6503 121.884 23.3278 119.772 23.3278C117.52 23.3278 116.535 24.6503 116.347 25.595H113.109C113.25 22.8555 115.69 20.541 119.772 20.541C124.042 20.541 126.435 22.9499 126.435 26.7286V37.1672H123.667L123.338 35.4195ZM123.151 29.7043H119.256C116.769 29.7043 115.69 30.8379 115.69 32.3021C115.69 33.7664 116.675 34.7583 118.599 34.7583C121.555 34.7583 123.151 33.1051 123.151 30.3656V29.7043Z" fill="white"/>
<path id="Vector_6" d="M133.381 38.2063C133.522 39.6706 134.976 41.1348 137.604 41.1348C140.185 41.1348 141.968 39.3399 141.968 36.8838V34.2859H141.827C141.029 35.0889 139.903 36.2225 136.806 36.2225C132.771 36.2225 129.674 33.1051 129.674 28.3818C129.674 23.6584 132.771 20.541 136.806 20.541C139.95 20.541 141.264 22.0052 141.827 22.6665H141.968L142.296 20.8716H145.206V36.8838C145.206 41.182 142.437 44.0633 137.604 44.0633C132.255 44.0633 130.331 40.4263 130.143 38.2063H133.381ZM141.968 28.3818C141.968 25.4533 140.044 23.4695 137.416 23.4695C134.789 23.4695 132.865 25.4061 132.865 28.3818C132.865 31.3102 134.789 33.294 137.416 33.294C140.044 33.294 141.968 31.3575 141.968 28.3818Z" fill="white"/>
<path id="Vector_7" d="M148.584 29.043C148.584 23.9891 152.009 20.541 156.702 20.541C161.394 20.541 164.82 23.9891 164.82 29.043C164.82 34.097 161.394 37.545 156.702 37.545C152.009 37.545 148.584 34.097 148.584 29.043ZM161.582 29.043C161.582 25.6422 159.47 23.5167 156.702 23.5167C153.933 23.5167 151.822 25.6895 151.822 29.043C151.822 32.4438 153.933 34.5693 156.702 34.5693C159.47 34.6166 161.582 32.4438 161.582 29.043Z" fill="white"/>
<path id="Vector_8" d="M171.154 38.2063C171.295 39.6706 172.75 41.1348 175.377 41.1348C177.958 41.1348 179.741 39.3399 179.741 36.8838V34.2859H179.601C178.803 35.0889 177.677 36.2225 174.58 36.2225C170.544 36.2225 167.447 33.1051 167.447 28.3818C167.447 23.6584 170.544 20.541 174.58 20.541C177.724 20.541 179.038 22.0052 179.601 22.6665H179.741L180.07 20.8716H182.979V36.8838C182.979 41.182 180.211 44.0633 175.377 44.0633C170.028 44.0633 168.104 40.4263 167.917 38.2063H171.154ZM179.741 28.3818C179.741 25.4533 177.817 23.4695 175.19 23.4695C172.562 23.4695 170.638 25.4061 170.638 28.3818C170.638 31.3102 172.562 33.294 175.19 33.294C177.817 33.294 179.741 31.3575 179.741 28.3818Z" fill="white"/>
</g>
</g>
</g>
<defs>
<clipPath id="clip0_176_28">
<rect width="183" height="55" fill="white"/>
</clipPath>
</defs>
</svg>
