<svg width="49" height="49" viewBox="0 0 49 49" fill="none" xmlns="http://www.w3.org/2000/svg">
<g id="65">
<g id="Ellipse 8">
<mask id="path-1-inside-1_241_300" fill="white">
<path d="M49 24.5C49 38.031 38.031 49 24.5 49C10.969 49 0 38.031 0 24.5C0 10.969 10.969 0 24.5 0C38.031 0 49 10.969 49 24.5ZM12.25 24.5C12.25 31.2655 17.7345 36.75 24.5 36.75C31.2655 36.75 36.75 31.2655 36.75 24.5C36.75 17.7345 31.2655 12.25 24.5 12.25C17.7345 12.25 12.25 17.7345 12.25 24.5Z"/>
</mask>
<path d="M49 24.5C49 38.031 38.031 49 24.5 49C10.969 49 0 38.031 0 24.5C0 10.969 10.969 0 24.5 0C38.031 0 49 10.969 49 24.5ZM12.25 24.5C12.25 31.2655 17.7345 36.75 24.5 36.75C31.2655 36.75 36.75 31.2655 36.75 24.5C36.75 17.7345 31.2655 12.25 24.5 12.25C17.7345 12.25 12.25 17.7345 12.25 24.5Z" stroke="white" stroke-width="2" mask="url(#path-1-inside-1_241_300)"/>
</g>
</g>
</svg>
